<mxfile host="app.diagrams.net" agent="Mozilla/5.0 (Windows NT 10.0; Win64; x64) AppleWebKit/537.36 (KHTML, like Gecko) Chrome/127.0.0.0 Safari/537.36" version="24.7.7">
  <diagram name="Page-1" id="__Fm8rCStfu-tuODxvKF">
    <mxGraphModel dx="1500" dy="746" grid="1" gridSize="10" guides="1" tooltips="1" connect="1" arrows="1" fold="1" page="1" pageScale="1" pageWidth="827" pageHeight="1169" math="0" shadow="0">
      <root>
        <mxCell id="0" />
        <mxCell id="1" parent="0" />
        <mxCell id="GnEq7Ew2ZkEFzDZ6z9yR-1" value="SUSTAV PLAĆANJA" style="swimlane;" vertex="1" parent="1">
          <mxGeometry x="90" y="40" width="180" height="730" as="geometry" />
        </mxCell>
        <mxCell id="GnEq7Ew2ZkEFzDZ6z9yR-2" value="KONOBAR" style="swimlane;" vertex="1" parent="1">
          <mxGeometry x="270" y="40" width="180" height="730" as="geometry" />
        </mxCell>
        <mxCell id="GnEq7Ew2ZkEFzDZ6z9yR-33" value="&lt;font size=&quot;1&quot;&gt;Odabire stol za unos narudžbe&lt;/font&gt;" style="rounded=1;whiteSpace=wrap;html=1;" vertex="1" parent="GnEq7Ew2ZkEFzDZ6z9yR-2">
          <mxGeometry x="45" y="360" width="90" height="30" as="geometry" />
        </mxCell>
        <mxCell id="GnEq7Ew2ZkEFzDZ6z9yR-43" value="" style="edgeStyle=orthogonalEdgeStyle;rounded=0;orthogonalLoop=1;jettySize=auto;html=1;" edge="1" parent="GnEq7Ew2ZkEFzDZ6z9yR-2" source="GnEq7Ew2ZkEFzDZ6z9yR-36" target="GnEq7Ew2ZkEFzDZ6z9yR-42">
          <mxGeometry relative="1" as="geometry" />
        </mxCell>
        <mxCell id="GnEq7Ew2ZkEFzDZ6z9yR-36" value="&lt;font size=&quot;1&quot;&gt;Odabire piće i potvrđuje narudžbu&lt;/font&gt;" style="rounded=1;whiteSpace=wrap;html=1;" vertex="1" parent="GnEq7Ew2ZkEFzDZ6z9yR-2">
          <mxGeometry x="45" y="420" width="90" height="30" as="geometry" />
        </mxCell>
        <mxCell id="GnEq7Ew2ZkEFzDZ6z9yR-42" value="&lt;font size=&quot;1&quot;&gt;Bira način plaćanja&lt;/font&gt;" style="rounded=1;whiteSpace=wrap;html=1;" vertex="1" parent="GnEq7Ew2ZkEFzDZ6z9yR-2">
          <mxGeometry x="45" y="470" width="90" height="30" as="geometry" />
        </mxCell>
        <mxCell id="GnEq7Ew2ZkEFzDZ6z9yR-47" value="Izdavanje računa" style="rounded=1;whiteSpace=wrap;html=1;" vertex="1" parent="GnEq7Ew2ZkEFzDZ6z9yR-2">
          <mxGeometry x="45" y="530" width="90" height="30" as="geometry" />
        </mxCell>
        <mxCell id="GnEq7Ew2ZkEFzDZ6z9yR-86" value="" style="endArrow=classic;html=1;rounded=0;entryX=1.025;entryY=0.41;entryDx=0;entryDy=0;entryPerimeter=0;" edge="1" parent="GnEq7Ew2ZkEFzDZ6z9yR-2">
          <mxGeometry width="50" height="50" relative="1" as="geometry">
            <mxPoint x="280" y="430" as="sourcePoint" />
            <mxPoint x="135" y="432.30000000000007" as="targetPoint" />
          </mxGeometry>
        </mxCell>
        <mxCell id="GnEq7Ew2ZkEFzDZ6z9yR-88" value="" style="endArrow=classic;html=1;rounded=0;" edge="1" parent="GnEq7Ew2ZkEFzDZ6z9yR-2">
          <mxGeometry width="50" height="50" relative="1" as="geometry">
            <mxPoint x="-80" y="545" as="sourcePoint" />
            <mxPoint x="45" y="545" as="targetPoint" />
          </mxGeometry>
        </mxCell>
        <mxCell id="GnEq7Ew2ZkEFzDZ6z9yR-103" value="" style="endArrow=classic;html=1;rounded=0;entryX=0;entryY=0.5;entryDx=0;entryDy=0;" edge="1" parent="GnEq7Ew2ZkEFzDZ6z9yR-2" target="GnEq7Ew2ZkEFzDZ6z9yR-97">
          <mxGeometry width="50" height="50" relative="1" as="geometry">
            <mxPoint x="90" y="595" as="sourcePoint" />
            <mxPoint x="170" y="570" as="targetPoint" />
          </mxGeometry>
        </mxCell>
        <mxCell id="GnEq7Ew2ZkEFzDZ6z9yR-4" value="CAFFE BAR (SUSTAV)" style="swimlane;" vertex="1" parent="1">
          <mxGeometry x="450" y="40" width="180" height="730" as="geometry" />
        </mxCell>
        <mxCell id="GnEq7Ew2ZkEFzDZ6z9yR-19" value="" style="edgeStyle=orthogonalEdgeStyle;rounded=0;orthogonalLoop=1;jettySize=auto;html=1;" edge="1" parent="GnEq7Ew2ZkEFzDZ6z9yR-4" source="GnEq7Ew2ZkEFzDZ6z9yR-14" target="GnEq7Ew2ZkEFzDZ6z9yR-16">
          <mxGeometry relative="1" as="geometry" />
        </mxCell>
        <mxCell id="GnEq7Ew2ZkEFzDZ6z9yR-9" value="" style="ellipse;html=1;shape=endState;fillColor=strokeColor;" vertex="1" parent="GnEq7Ew2ZkEFzDZ6z9yR-4">
          <mxGeometry x="85" y="630" width="30" height="30" as="geometry" />
        </mxCell>
        <mxCell id="GnEq7Ew2ZkEFzDZ6z9yR-13" value="&lt;span style=&quot;font-size: 10px;&quot;&gt;Provjera&lt;/span&gt;" style="rhombus;whiteSpace=wrap;html=1;" vertex="1" parent="GnEq7Ew2ZkEFzDZ6z9yR-4">
          <mxGeometry x="55" y="180" width="70" height="60" as="geometry" />
        </mxCell>
        <mxCell id="GnEq7Ew2ZkEFzDZ6z9yR-17" value="" style="edgeStyle=orthogonalEdgeStyle;rounded=0;orthogonalLoop=1;jettySize=auto;html=1;" edge="1" parent="GnEq7Ew2ZkEFzDZ6z9yR-4" source="GnEq7Ew2ZkEFzDZ6z9yR-14" target="GnEq7Ew2ZkEFzDZ6z9yR-16">
          <mxGeometry relative="1" as="geometry" />
        </mxCell>
        <mxCell id="GnEq7Ew2ZkEFzDZ6z9yR-18" value="" style="edgeStyle=orthogonalEdgeStyle;rounded=0;orthogonalLoop=1;jettySize=auto;html=1;" edge="1" parent="GnEq7Ew2ZkEFzDZ6z9yR-4" source="GnEq7Ew2ZkEFzDZ6z9yR-16" target="GnEq7Ew2ZkEFzDZ6z9yR-13">
          <mxGeometry relative="1" as="geometry" />
        </mxCell>
        <mxCell id="GnEq7Ew2ZkEFzDZ6z9yR-16" value="Prisup podacima" style="rounded=1;whiteSpace=wrap;html=1;" vertex="1" parent="GnEq7Ew2ZkEFzDZ6z9yR-4">
          <mxGeometry x="45" y="130" width="90" height="30" as="geometry" />
        </mxCell>
        <mxCell id="GnEq7Ew2ZkEFzDZ6z9yR-14" value="Prijava" style="rounded=1;whiteSpace=wrap;html=1;" vertex="1" parent="GnEq7Ew2ZkEFzDZ6z9yR-4">
          <mxGeometry x="45" y="80" width="90" height="30" as="geometry" />
        </mxCell>
        <mxCell id="GnEq7Ew2ZkEFzDZ6z9yR-26" value="&lt;font style=&quot;font-size: 7px;&quot;&gt;Neuspjeh&lt;/font&gt;" style="text;html=1;align=center;verticalAlign=middle;resizable=0;points=[];autosize=1;strokeColor=none;fillColor=none;" vertex="1" parent="GnEq7Ew2ZkEFzDZ6z9yR-4">
          <mxGeometry x="120" y="188" width="50" height="30" as="geometry" />
        </mxCell>
        <mxCell id="GnEq7Ew2ZkEFzDZ6z9yR-29" value="" style="endArrow=classic;html=1;rounded=0;" edge="1" parent="GnEq7Ew2ZkEFzDZ6z9yR-4">
          <mxGeometry width="50" height="50" relative="1" as="geometry">
            <mxPoint x="170" y="100" as="sourcePoint" />
            <mxPoint x="135" y="100" as="targetPoint" />
          </mxGeometry>
        </mxCell>
        <mxCell id="GnEq7Ew2ZkEFzDZ6z9yR-77" value="&lt;font size=&quot;1&quot;&gt;Prikaz dostupnog menia&lt;/font&gt;" style="rounded=1;whiteSpace=wrap;html=1;" vertex="1" parent="GnEq7Ew2ZkEFzDZ6z9yR-4">
          <mxGeometry x="55" y="360" width="90" height="30" as="geometry" />
        </mxCell>
        <mxCell id="GnEq7Ew2ZkEFzDZ6z9yR-97" value="&lt;font size=&quot;1&quot;&gt;Odjava&lt;/font&gt;" style="rounded=1;whiteSpace=wrap;html=1;" vertex="1" parent="GnEq7Ew2ZkEFzDZ6z9yR-4">
          <mxGeometry x="55" y="580" width="90" height="30" as="geometry" />
        </mxCell>
        <mxCell id="GnEq7Ew2ZkEFzDZ6z9yR-105" value="" style="ellipse;html=1;shape=endState;fillColor=strokeColor;" vertex="1" parent="GnEq7Ew2ZkEFzDZ6z9yR-4">
          <mxGeometry x="75" y="40" width="30" height="30" as="geometry" />
        </mxCell>
        <mxCell id="GnEq7Ew2ZkEFzDZ6z9yR-107" value="" style="endArrow=classic;html=1;rounded=0;exitX=0.5;exitY=1;exitDx=0;exitDy=0;entryX=0.5;entryY=0;entryDx=0;entryDy=0;" edge="1" parent="GnEq7Ew2ZkEFzDZ6z9yR-4" source="GnEq7Ew2ZkEFzDZ6z9yR-105" target="GnEq7Ew2ZkEFzDZ6z9yR-14">
          <mxGeometry width="50" height="50" relative="1" as="geometry">
            <mxPoint x="130" y="100" as="sourcePoint" />
            <mxPoint x="180" y="50" as="targetPoint" />
          </mxGeometry>
        </mxCell>
        <mxCell id="GnEq7Ew2ZkEFzDZ6z9yR-108" value="" style="endArrow=classic;html=1;rounded=0;exitX=0.5;exitY=1;exitDx=0;exitDy=0;entryX=0.5;entryY=0;entryDx=0;entryDy=0;" edge="1" parent="GnEq7Ew2ZkEFzDZ6z9yR-4" source="GnEq7Ew2ZkEFzDZ6z9yR-97" target="GnEq7Ew2ZkEFzDZ6z9yR-9">
          <mxGeometry width="50" height="50" relative="1" as="geometry">
            <mxPoint x="110" y="610" as="sourcePoint" />
            <mxPoint x="160" y="560" as="targetPoint" />
          </mxGeometry>
        </mxCell>
        <mxCell id="GnEq7Ew2ZkEFzDZ6z9yR-7" value="ADMINISTATOR" style="swimlane;" vertex="1" parent="1">
          <mxGeometry x="630" y="40" width="180" height="730" as="geometry" />
        </mxCell>
        <mxCell id="GnEq7Ew2ZkEFzDZ6z9yR-72" value="" style="edgeStyle=orthogonalEdgeStyle;rounded=0;orthogonalLoop=1;jettySize=auto;html=1;" edge="1" parent="GnEq7Ew2ZkEFzDZ6z9yR-7" source="GnEq7Ew2ZkEFzDZ6z9yR-69" target="GnEq7Ew2ZkEFzDZ6z9yR-71">
          <mxGeometry relative="1" as="geometry" />
        </mxCell>
        <mxCell id="GnEq7Ew2ZkEFzDZ6z9yR-69" value="Upravljanje korisnicima" style="rounded=1;whiteSpace=wrap;html=1;" vertex="1" parent="GnEq7Ew2ZkEFzDZ6z9yR-7">
          <mxGeometry x="45" y="300" width="90" height="30" as="geometry" />
        </mxCell>
        <mxCell id="GnEq7Ew2ZkEFzDZ6z9yR-74" value="" style="edgeStyle=orthogonalEdgeStyle;rounded=0;orthogonalLoop=1;jettySize=auto;html=1;" edge="1" parent="GnEq7Ew2ZkEFzDZ6z9yR-7" source="GnEq7Ew2ZkEFzDZ6z9yR-71" target="GnEq7Ew2ZkEFzDZ6z9yR-73">
          <mxGeometry relative="1" as="geometry" />
        </mxCell>
        <mxCell id="GnEq7Ew2ZkEFzDZ6z9yR-71" value="Upravljanje izbornikom" style="rounded=1;whiteSpace=wrap;html=1;" vertex="1" parent="GnEq7Ew2ZkEFzDZ6z9yR-7">
          <mxGeometry x="45" y="350" width="90" height="30" as="geometry" />
        </mxCell>
        <mxCell id="GnEq7Ew2ZkEFzDZ6z9yR-80" value="" style="edgeStyle=orthogonalEdgeStyle;rounded=0;orthogonalLoop=1;jettySize=auto;html=1;" edge="1" parent="GnEq7Ew2ZkEFzDZ6z9yR-7" source="GnEq7Ew2ZkEFzDZ6z9yR-73" target="GnEq7Ew2ZkEFzDZ6z9yR-79">
          <mxGeometry relative="1" as="geometry" />
        </mxCell>
        <mxCell id="GnEq7Ew2ZkEFzDZ6z9yR-73" value="Praćenje zaliha" style="rounded=1;whiteSpace=wrap;html=1;" vertex="1" parent="GnEq7Ew2ZkEFzDZ6z9yR-7">
          <mxGeometry x="45" y="400" width="90" height="30" as="geometry" />
        </mxCell>
        <mxCell id="GnEq7Ew2ZkEFzDZ6z9yR-79" value="Generiranje izvještaja" style="rounded=1;whiteSpace=wrap;html=1;" vertex="1" parent="GnEq7Ew2ZkEFzDZ6z9yR-7">
          <mxGeometry x="45" y="450" width="90" height="30" as="geometry" />
        </mxCell>
        <mxCell id="GnEq7Ew2ZkEFzDZ6z9yR-22" value="" style="endArrow=none;html=1;rounded=0;exitX=1;exitY=0.5;exitDx=0;exitDy=0;" edge="1" parent="1" source="GnEq7Ew2ZkEFzDZ6z9yR-13">
          <mxGeometry width="50" height="50" relative="1" as="geometry">
            <mxPoint x="450" y="260" as="sourcePoint" />
            <mxPoint x="620" y="250" as="targetPoint" />
          </mxGeometry>
        </mxCell>
        <mxCell id="GnEq7Ew2ZkEFzDZ6z9yR-23" value="" style="endArrow=none;html=1;rounded=0;" edge="1" parent="1">
          <mxGeometry width="50" height="50" relative="1" as="geometry">
            <mxPoint x="620" y="250" as="sourcePoint" />
            <mxPoint x="620" y="140" as="targetPoint" />
          </mxGeometry>
        </mxCell>
        <mxCell id="GnEq7Ew2ZkEFzDZ6z9yR-30" value="" style="endArrow=classic;html=1;rounded=0;exitX=0.5;exitY=1;exitDx=0;exitDy=0;" edge="1" parent="1" source="GnEq7Ew2ZkEFzDZ6z9yR-13">
          <mxGeometry width="50" height="50" relative="1" as="geometry">
            <mxPoint x="430" y="300" as="sourcePoint" />
            <mxPoint x="540" y="300" as="targetPoint" />
          </mxGeometry>
        </mxCell>
        <mxCell id="GnEq7Ew2ZkEFzDZ6z9yR-31" value="" style="endArrow=none;html=1;rounded=0;" edge="1" parent="1">
          <mxGeometry width="50" height="50" relative="1" as="geometry">
            <mxPoint x="360" y="300" as="sourcePoint" />
            <mxPoint x="720" y="300" as="targetPoint" />
          </mxGeometry>
        </mxCell>
        <mxCell id="GnEq7Ew2ZkEFzDZ6z9yR-32" value="&lt;span style=&quot;font-size: 8px;&quot;&gt;Uspjeh&lt;/span&gt;" style="text;html=1;align=center;verticalAlign=middle;resizable=0;points=[];autosize=1;strokeColor=none;fillColor=none;" vertex="1" parent="1">
          <mxGeometry x="535" y="278" width="50" height="30" as="geometry" />
        </mxCell>
        <mxCell id="GnEq7Ew2ZkEFzDZ6z9yR-35" value="" style="endArrow=classic;html=1;rounded=0;entryX=0.5;entryY=0;entryDx=0;entryDy=0;" edge="1" parent="1" source="GnEq7Ew2ZkEFzDZ6z9yR-91" target="GnEq7Ew2ZkEFzDZ6z9yR-33">
          <mxGeometry width="50" height="50" relative="1" as="geometry">
            <mxPoint x="360" y="300" as="sourcePoint" />
            <mxPoint x="550" y="280" as="targetPoint" />
          </mxGeometry>
        </mxCell>
        <mxCell id="GnEq7Ew2ZkEFzDZ6z9yR-54" value="" style="endArrow=classic;html=1;rounded=0;entryX=1;entryY=0.5;entryDx=0;entryDy=0;exitX=0;exitY=0.5;exitDx=0;exitDy=0;" edge="1" parent="1" source="GnEq7Ew2ZkEFzDZ6z9yR-42" target="GnEq7Ew2ZkEFzDZ6z9yR-44">
          <mxGeometry width="50" height="50" relative="1" as="geometry">
            <mxPoint x="310" y="455" as="sourcePoint" />
            <mxPoint x="430" y="400" as="targetPoint" />
          </mxGeometry>
        </mxCell>
        <mxCell id="GnEq7Ew2ZkEFzDZ6z9yR-70" value="" style="endArrow=classic;html=1;rounded=0;entryX=0.5;entryY=0;entryDx=0;entryDy=0;" edge="1" parent="1" target="GnEq7Ew2ZkEFzDZ6z9yR-69">
          <mxGeometry width="50" height="50" relative="1" as="geometry">
            <mxPoint x="720" y="300" as="sourcePoint" />
            <mxPoint x="590" y="250" as="targetPoint" />
          </mxGeometry>
        </mxCell>
        <mxCell id="GnEq7Ew2ZkEFzDZ6z9yR-84" value="" style="edgeStyle=orthogonalEdgeStyle;rounded=0;orthogonalLoop=1;jettySize=auto;html=1;" edge="1" parent="1" source="GnEq7Ew2ZkEFzDZ6z9yR-33" target="GnEq7Ew2ZkEFzDZ6z9yR-77">
          <mxGeometry relative="1" as="geometry" />
        </mxCell>
        <mxCell id="GnEq7Ew2ZkEFzDZ6z9yR-87" value="" style="endArrow=none;html=1;rounded=0;exitX=0.5;exitY=1;exitDx=0;exitDy=0;" edge="1" parent="1" source="GnEq7Ew2ZkEFzDZ6z9yR-44">
          <mxGeometry width="50" height="50" relative="1" as="geometry">
            <mxPoint x="530" y="460" as="sourcePoint" />
            <mxPoint x="180" y="510" as="targetPoint" />
          </mxGeometry>
        </mxCell>
        <mxCell id="GnEq7Ew2ZkEFzDZ6z9yR-93" value="" style="endArrow=classic;html=1;rounded=0;entryX=0.5;entryY=0;entryDx=0;entryDy=0;" edge="1" parent="1" target="GnEq7Ew2ZkEFzDZ6z9yR-91">
          <mxGeometry width="50" height="50" relative="1" as="geometry">
            <mxPoint x="360" y="300" as="sourcePoint" />
            <mxPoint x="360" y="440" as="targetPoint" />
          </mxGeometry>
        </mxCell>
        <mxCell id="GnEq7Ew2ZkEFzDZ6z9yR-91" value="&lt;font size=&quot;1&quot;&gt;Praćenje statusa stola&lt;/font&gt;" style="rounded=1;whiteSpace=wrap;html=1;" vertex="1" parent="1">
          <mxGeometry x="315" y="340" width="90" height="30" as="geometry" />
        </mxCell>
        <mxCell id="GnEq7Ew2ZkEFzDZ6z9yR-94" value="" style="endArrow=none;html=1;rounded=0;entryX=0.5;entryY=1;entryDx=0;entryDy=0;" edge="1" parent="1" target="GnEq7Ew2ZkEFzDZ6z9yR-77">
          <mxGeometry width="50" height="50" relative="1" as="geometry">
            <mxPoint x="550" y="470" as="sourcePoint" />
            <mxPoint x="520" y="420" as="targetPoint" />
          </mxGeometry>
        </mxCell>
        <mxCell id="GnEq7Ew2ZkEFzDZ6z9yR-44" value="Izvršava transakciju" style="rounded=1;whiteSpace=wrap;html=1;" vertex="1" parent="1">
          <mxGeometry x="150" y="510" width="90" height="30" as="geometry" />
        </mxCell>
        <mxCell id="GnEq7Ew2ZkEFzDZ6z9yR-96" value="" style="endArrow=none;html=1;rounded=0;entryX=0.5;entryY=1;entryDx=0;entryDy=0;" edge="1" parent="1" target="GnEq7Ew2ZkEFzDZ6z9yR-44">
          <mxGeometry width="50" height="50" relative="1" as="geometry">
            <mxPoint x="195" y="590" as="sourcePoint" />
            <mxPoint x="410" y="540" as="targetPoint" />
          </mxGeometry>
        </mxCell>
        <mxCell id="GnEq7Ew2ZkEFzDZ6z9yR-99" value="" style="endArrow=none;html=1;rounded=0;entryX=0.5;entryY=1;entryDx=0;entryDy=0;" edge="1" parent="1" target="GnEq7Ew2ZkEFzDZ6z9yR-79">
          <mxGeometry width="50" height="50" relative="1" as="geometry">
            <mxPoint x="720" y="640" as="sourcePoint" />
            <mxPoint x="550" y="500" as="targetPoint" />
          </mxGeometry>
        </mxCell>
        <mxCell id="GnEq7Ew2ZkEFzDZ6z9yR-102" value="" style="endArrow=classic;html=1;rounded=0;entryX=1;entryY=0.5;entryDx=0;entryDy=0;" edge="1" parent="1" target="GnEq7Ew2ZkEFzDZ6z9yR-97">
          <mxGeometry width="50" height="50" relative="1" as="geometry">
            <mxPoint x="720" y="635" as="sourcePoint" />
            <mxPoint x="690" y="610" as="targetPoint" />
          </mxGeometry>
        </mxCell>
        <mxCell id="GnEq7Ew2ZkEFzDZ6z9yR-104" value="" style="endArrow=none;html=1;rounded=0;entryX=0.5;entryY=1;entryDx=0;entryDy=0;" edge="1" parent="1" target="GnEq7Ew2ZkEFzDZ6z9yR-47">
          <mxGeometry width="50" height="50" relative="1" as="geometry">
            <mxPoint x="360" y="640" as="sourcePoint" />
            <mxPoint x="540" y="570" as="targetPoint" />
          </mxGeometry>
        </mxCell>
      </root>
    </mxGraphModel>
  </diagram>
</mxfile>
